<svg width="201" height="59" viewBox="0 0 201 59" fill="none" xmlns="http://www.w3.org/2000/svg">
<g clip-path="url(#clip0_97_36245)">
<path d="M196.712 1H4.28833C2.47224 1 1 2.45827 1 4.25714V54.7429C1 56.5417 2.47224 58 4.28833 58H196.712C198.528 58 200 56.5417 200 54.7429V4.25714C200 2.45827 198.528 1 196.712 1Z" stroke="#090909" stroke-width="2"/>
<path d="M47.2213 28.1411C47.1836 23.5956 50.9071 21.38 51.0804 21.281C48.9699 18.1746 45.6987 17.7482 44.5455 17.7177C41.7944 17.4285 39.1337 19.3776 37.7318 19.3776C36.3072 19.3776 34.1514 17.7482 31.8224 17.7939C28.8301 17.8396 26.0337 19.5908 24.5037 22.3013C21.3379 27.8365 23.6972 35.968 26.7347 40.4449C28.2497 42.6377 30.021 45.0817 32.3425 44.9979C34.6112 44.9065 35.463 43.5361 38.199 43.5361C40.9125 43.5361 41.7114 44.9979 44.0782 44.9446C46.5128 44.9065 48.0504 42.7442 49.5126 40.5363C51.2689 38.0237 51.9699 35.5492 52 35.4274C51.9397 35.3893 47.2665 33.5849 47.2213 28.1411ZM42.7516 14.7712C43.9727 13.2256 44.8093 11.1319 44.5756 9C42.8119 9.0761 40.5959 10.2334 39.3296 11.741C38.2066 13.0734 37.1965 15.2509 37.4604 17.299C39.4352 17.4436 41.4778 16.2863 42.7516 14.7712Z" fill="#090909"/>
<path d="M80.7876 44.631H77.5967L75.8459 39.2398H69.7749L68.1075 44.631H65L71.0179 26.268H74.7317L80.7876 44.631ZM75.323 36.976L73.7389 32.1806C73.5722 31.6891 73.2538 30.5349 72.799 28.7179H72.746C72.5641 29.4998 72.2609 30.654 71.8592 32.1806L70.3055 36.976H75.323ZM96.2345 37.8473C96.2345 40.0962 95.6127 41.8759 94.3697 43.1865C93.2551 44.3481 91.8684 44.9289 90.216 44.9289C88.4272 44.9289 87.1467 44.3034 86.3663 43.0524V50H83.3722V35.74C83.3722 34.3252 83.3346 32.873 83.2586 31.3912H85.8956L86.0632 33.4911H86.1155C87.1165 31.9125 88.6324 31.1157 90.663 31.1157C92.2549 31.1157 93.5812 31.7338 94.6427 32.9699C95.7034 34.206 96.2345 35.8368 96.2345 37.8473ZM93.1873 37.959C93.1873 36.6708 92.8915 35.606 92.3006 34.7719C91.6559 33.9007 90.7848 33.4687 89.693 33.4687C88.9584 33.4687 88.2834 33.7145 87.6844 34.1911C87.0863 34.6751 86.6916 35.3081 86.5102 36.0825C86.4268 36.3729 86.381 36.6782 86.3737 36.976V39.1877C86.3737 40.1483 86.6769 40.9599 87.2758 41.6301C87.874 42.2929 88.6552 42.6279 89.617 42.6279C90.7464 42.6279 91.6257 42.1961 92.2549 41.3472C92.8686 40.4834 93.1873 39.3589 93.1873 37.959ZM111.741 37.8473C111.741 40.0962 111.12 41.8759 109.876 43.1865C108.763 44.3481 107.376 44.9289 105.724 44.9289C103.935 44.9289 102.653 44.3034 101.873 43.0524V50H98.8789V35.74C98.8789 34.3252 98.8413 32.873 98.7653 31.3912H101.403L101.57 33.4911H101.623C102.623 31.9125 104.139 31.1157 106.171 31.1157C107.762 31.1157 109.089 31.7338 110.149 32.9699C111.204 34.206 111.741 35.8368 111.741 37.8473ZM108.687 37.959C108.687 36.6708 108.392 35.606 107.8 34.7719C107.156 33.9007 106.284 33.4687 105.193 33.4687C104.458 33.4687 103.783 33.7145 103.176 34.1911C102.578 34.6751 102.184 35.3081 102.002 36.0825C101.911 36.4474 101.858 36.7452 101.858 36.976V39.1877C101.858 40.1483 102.161 40.9599 102.76 41.6301C103.359 42.2929 104.139 42.6279 105.11 42.6279C106.238 42.6279 107.118 42.1961 107.747 41.3472C108.376 40.4834 108.687 39.3589 108.687 37.959ZM129.075 39.4855C129.075 41.0493 128.522 42.3227 127.415 43.2981C126.203 44.3704 124.497 44.9066 122.322 44.9066C120.313 44.9066 118.699 44.5268 117.479 43.7598L118.168 41.3099C119.48 42.0769 120.927 42.4567 122.496 42.4567C123.625 42.4567 124.505 42.2035 125.134 41.7045C125.763 41.2057 126.081 40.5355 126.081 39.7015C126.081 38.9568 125.816 38.3313 125.301 37.8175C124.785 37.3111 123.929 36.8346 122.724 36.4027C119.45 35.2038 117.812 33.4464 117.812 31.1455C117.812 29.6413 118.388 28.4052 119.548 27.4446C120.7 26.484 122.231 26 124.141 26C125.839 26 127.256 26.2904 128.385 26.8712L127.635 29.269C126.574 28.7031 125.384 28.4275 124.042 28.4275C122.989 28.4275 122.155 28.6807 121.564 29.187C121.064 29.6413 120.813 30.1924 120.813 30.8477C120.813 31.5699 121.102 32.1731 121.678 32.6422C122.178 33.0741 123.08 33.5507 124.391 34.0571C125.998 34.6974 127.18 35.4346 127.938 36.291C128.696 37.1474 129.075 38.2122 129.075 39.4855ZM139.004 33.6028H135.699V40.0291C135.699 41.6674 136.283 42.479 137.45 42.479C137.988 42.479 138.428 42.4343 138.784 42.345L138.867 44.5789C138.277 44.7949 137.503 44.9066 136.541 44.9066C135.358 44.9066 134.433 44.5492 133.767 43.8418C133.1 43.1343 132.766 41.9428 132.766 40.2749V33.6028H130.803V31.3987H132.766V28.9711L135.707 28.0999V31.3987H139.011L139.004 33.6028ZM153.867 37.9069C153.867 39.9398 153.276 41.6153 152.093 42.9184C150.858 44.2661 149.214 44.9364 147.159 44.9364C145.181 44.9364 143.604 44.2885 142.429 43.0077C141.255 41.7195 140.672 40.0887 140.672 38.1303C140.672 36.0751 141.278 34.3996 142.491 33.089C143.703 31.7784 145.333 31.1306 147.386 31.1306C149.365 31.1306 150.957 31.7784 152.154 33.0667C153.29 34.3102 153.867 35.9261 153.867 37.9069ZM150.76 37.9739C150.76 36.7601 150.494 35.7176 149.956 34.8538C149.327 33.8039 148.432 33.2752 147.265 33.2752C146.067 33.2752 145.143 33.8039 144.521 34.8538C143.984 35.725 143.718 36.7825 143.718 38.0335C143.718 39.2472 143.984 40.2898 144.521 41.161C145.166 42.2109 146.076 42.7397 147.243 42.7397C148.387 42.7397 149.281 42.2035 149.933 41.1387C150.487 40.2376 150.76 39.1877 150.76 37.9739ZM163.606 33.9826C163.295 33.9305 162.977 33.9007 162.659 33.9007C161.605 33.9007 160.795 34.2879 160.218 35.0698C159.718 35.7623 159.468 36.6335 159.468 37.6835V44.631H156.474V35.5612C156.474 34.1688 156.451 32.7837 156.391 31.3912H158.998L159.104 33.923H159.187C159.506 33.0517 159.999 32.3518 160.688 31.8231C161.309 31.3614 162.075 31.1157 162.855 31.1157C163.137 31.1157 163.378 31.1381 163.606 31.1678V33.9826ZM176.999 37.3857C177.006 37.8324 176.968 38.2792 176.893 38.7186H167.904C167.934 40.0291 168.374 41.0269 169.207 41.7195C169.965 42.3375 170.943 42.6428 172.148 42.6428C173.482 42.6428 174.695 42.4343 175.786 42.0173L176.256 44.0576C174.982 44.6013 173.475 44.8768 171.739 44.8768C169.647 44.8768 168.009 44.2736 166.812 43.0673C165.622 41.8609 165.023 40.2376 165.023 38.2047C165.023 36.2091 165.577 34.5485 166.691 33.2231C167.851 31.8082 169.427 31.1008 171.406 31.1008C173.346 31.1008 174.816 31.8082 175.817 33.2231C176.597 34.3475 176.999 35.7325 176.999 37.3857ZM174.141 36.6261C174.164 35.7549 173.967 35.0028 173.558 34.3623C173.042 33.5433 172.239 33.1337 171.17 33.1337C170.193 33.1337 169.397 33.5358 168.782 34.3325C168.282 34.9655 167.987 35.7325 167.896 36.6187L174.141 36.6261Z" fill="#090909"/>
<path d="M69.1544 18.9306C68.32 18.9306 67.5994 18.8919 67 18.8224V9.6101C67.8421 9.47881 68.6917 9.40929 69.5414 9.41703C72.9777 9.41703 74.5632 11.139 74.5632 13.9421C74.5556 17.1776 72.6895 18.9306 69.1544 18.9306ZM69.6626 10.5985C69.2 10.5985 68.8055 10.6294 68.4793 10.6988V17.695C68.6538 17.7259 68.9952 17.7336 69.4731 17.7336C71.726 17.7336 73.0081 16.4286 73.0081 13.9885C73.0005 11.8032 71.8399 10.5985 69.6626 10.5985ZM79.494 19C77.5596 19 76.3003 17.5251 76.3003 15.5251C76.3003 13.4401 77.5824 11.9576 79.6003 11.9576C81.5118 11.9576 82.7941 13.363 82.7941 15.417C82.7941 17.5251 81.474 19 79.494 19ZM79.5471 13.0541C78.4851 13.0541 77.8024 14.0656 77.8024 15.4865C77.8024 16.8765 78.5003 17.888 79.532 17.888C80.5713 17.888 81.2616 16.8069 81.2616 15.4556C81.2691 14.0811 80.5864 13.0541 79.5471 13.0541ZM93.8389 12.0966L91.768 18.8456H90.4177L89.5606 15.9189C89.3479 15.2008 89.1663 14.4749 89.0297 13.7414H88.9995C88.8932 14.4749 88.6879 15.2163 88.4679 15.9189L87.5575 18.8456H86.1925L84.2426 12.0966H85.7598L86.5106 15.3012C86.6857 16.0656 86.837 16.7838 86.9588 17.4711H86.9891C87.0954 16.8996 87.277 16.1969 87.5355 15.3167L88.476 12.0966H89.6742L90.5772 15.2471C90.7972 16.0116 90.9714 16.7607 91.108 17.4711H91.1456C91.2446 16.7761 91.3885 16.0425 91.5938 15.2471L92.3978 12.0966H93.8389ZM101.478 18.8456H100.007V14.9691C100.007 13.7723 99.5585 13.1776 98.671 13.1776C97.7992 13.1776 97.1997 13.9421 97.1997 14.8301V18.8456H95.7283V14.027C95.7283 13.4325 95.7127 12.7916 95.6751 12.0966H96.9723L97.0402 13.139H97.0778C97.4728 12.4209 98.2768 11.9576 99.1798 11.9576C100.568 11.9576 101.485 13.0387 101.485 14.807L101.478 18.8456ZM105.536 18.8456H104.065V9H105.536V18.8456ZM110.915 19C108.981 19 107.721 17.5251 107.721 15.5251C107.721 13.4401 109.003 11.9576 111.021 11.9576C112.933 11.9576 114.215 13.363 114.215 15.417C114.215 17.5251 112.888 19 110.915 19ZM110.968 13.0541C109.906 13.0541 109.223 14.0656 109.223 15.4865C109.223 16.8765 109.921 17.888 110.952 17.888C111.992 17.888 112.682 16.8069 112.682 15.4556C112.682 14.0811 112.008 13.0541 110.968 13.0541ZM120.025 18.8456L119.919 18.0656H119.881C119.434 18.6911 118.774 18.9923 117.94 18.9923C116.748 18.9923 115.906 18.1429 115.906 17.0078C115.906 15.3398 117.325 14.4827 119.782 14.4827V14.3591C119.782 13.471 119.32 13.0232 118.41 13.0232C117.757 13.0232 117.181 13.1931 116.68 13.5251L116.384 12.5367C116.999 12.1506 117.765 11.9499 118.66 11.9499C120.389 11.9499 121.269 12.8765 121.269 14.7374V17.224C121.269 17.9035 121.3 18.4363 121.368 18.8378L120.025 18.8456ZM119.821 15.4865C118.182 15.4865 117.363 15.888 117.363 16.8456C117.363 17.556 117.788 17.9035 118.372 17.9035C119.123 17.9035 119.821 17.3243 119.821 16.529V15.4865ZM128.408 18.8456L128.34 17.7645H128.302C127.877 18.5831 127.164 19 126.17 19C124.57 19 123.386 17.5715 123.386 15.556C123.386 13.4479 124.615 11.9576 126.291 11.9576C127.179 11.9576 127.808 12.2587 128.158 12.8765H128.188V9H129.659V17.0232C129.659 17.6718 129.675 18.2896 129.712 18.8378H128.408V18.8456ZM128.195 14.8765C128.195 13.9344 127.581 13.1236 126.64 13.1236C125.548 13.1236 124.88 14.112 124.88 15.4942C124.88 16.8533 125.571 17.7877 126.61 17.7877C127.535 17.7877 128.195 16.9691 128.195 15.9962V14.8765ZM139.021 19C137.087 19 135.827 17.5251 135.827 15.5251C135.827 13.4401 137.109 11.9576 139.127 11.9576C141.039 11.9576 142.32 13.363 142.32 15.417C142.32 17.5251 141.001 19 139.021 19ZM139.074 13.0541C138.012 13.0541 137.329 14.0656 137.329 15.4865C137.329 16.8765 138.027 17.888 139.059 17.888C140.098 17.888 140.788 16.8069 140.788 15.4556C140.796 14.0811 140.113 13.0541 139.074 13.0541ZM150.248 18.8456H148.776V14.9691C148.776 13.7723 148.329 13.1776 147.441 13.1776C146.568 13.1776 145.97 13.9421 145.97 14.8301V18.8456H144.498V14.027C144.498 13.4325 144.483 12.7916 144.444 12.0966H145.742L145.81 13.139H145.848C146.243 12.4209 147.047 11.9576 147.949 11.9576C149.338 11.9576 150.255 13.0387 150.255 14.807V18.8456H150.248ZM160.155 13.2239H158.532V16.4981C158.532 17.332 158.812 17.7491 159.389 17.7491C159.646 17.7491 159.867 17.7182 160.042 17.6796L160.079 18.8147C159.791 18.9228 159.412 18.9846 158.934 18.9846C157.773 18.9846 157.075 18.3359 157.075 16.6216V13.2163H156.104V12.0888H157.075V10.8533L158.524 10.4054V12.0888H160.148L160.155 13.2239ZM167.961 18.8456H166.489V15C166.489 13.7954 166.042 13.1854 165.154 13.1854C164.388 13.1854 163.683 13.7105 163.683 14.7838V18.8533H162.211V9H163.683V13.0541H163.713C164.176 12.3205 164.851 11.9576 165.708 11.9576C167.111 11.9576 167.969 13.0695 167.969 14.8301L167.961 18.8456ZM175.949 15.834H171.526C171.557 17.1082 172.384 17.834 173.613 17.834C174.265 17.834 174.872 17.7259 175.402 17.5174L175.631 18.5598C175.001 18.8378 174.265 18.9769 173.408 18.9769C171.337 18.9769 170.108 17.6409 170.108 15.5792C170.108 13.5097 171.367 11.9576 173.241 11.9576C174.932 11.9576 175.994 13.2317 175.994 15.1622C176.009 15.3784 175.994 15.6101 175.949 15.834ZM174.598 14.7607C174.598 13.7181 174.083 12.9846 173.143 12.9846C172.293 12.9846 171.625 13.7336 171.534 14.7607H174.598Z" fill="#090909"/>
</g>
<defs>
<clipPath id="clip0_97_36245">
<rect width="201" height="59" fill="white"/>
</clipPath>
</defs>
</svg>
