<svg width="30" height="30" viewBox="0 0 30 30" fill="none" xmlns="http://www.w3.org/2000/svg">
<g clip-path="url(#clip0_363_253)">
<path d="M2.49988 11C2.49988 8.8998 2.49988 7.8497 2.9086 7.04754C3.26813 6.34193 3.84181 5.76825 4.54741 5.40873C5.34958 5 6.39968 5 8.49988 5H21.4999C23.6001 5 24.6502 5 25.4523 5.40873C26.158 5.76825 26.7316 6.34193 27.0912 7.04754C27.4999 7.8497 27.4999 8.8998 27.4999 11V19C27.4999 21.1002 27.4999 22.1503 27.0912 22.9525C26.7316 23.6581 26.158 24.2318 25.4523 24.5913C24.6502 25 23.6001 25 21.4999 25H8.49988C6.39968 25 5.34958 25 4.54741 24.5913C3.84181 24.2318 3.26813 23.6581 2.9086 22.9525C2.49988 22.1503 2.49988 21.1002 2.49988 19V11Z" fill="#B3A9FF"/>
<rect x="18.0668" y="16.6084" width="11.2216" height="10.875" rx="5.4375" fill="#BFFF6C"/>
<path fill-rule="evenodd" clip-rule="evenodd" d="M20.9538 21.5264C20.6669 21.8133 20.6669 22.2785 20.9538 22.5655L22.4233 24.035C22.7102 24.3219 23.1754 24.3219 23.4624 24.035C23.7493 23.748 23.7493 23.2828 23.4624 22.9959L23.2472 22.7807L25.8818 22.7807C26.2876 22.7807 26.6166 22.4517 26.6166 22.0459C26.6166 21.6401 26.2876 21.3112 25.8818 21.3112L23.2472 21.3112L23.4624 21.096C23.7493 20.809 23.7493 20.3438 23.4624 20.0569C23.1754 19.7699 22.7102 19.7699 22.4233 20.0569L20.9538 21.5264Z" fill="#5A44FE"/>
<path d="M7.49994 18.75C7.49994 18.0596 8.05958 17.5 8.74994 17.5H13.7499C14.4403 17.5 14.9999 18.0596 14.9999 18.75C14.9999 19.4404 14.4403 20 13.7499 20H8.74994C8.05958 20 7.49994 19.4404 7.49994 18.75Z" fill="black"/>
<path d="M2.49988 10H27.4999V12.5H2.49988V10Z" fill="black"/>
</g>
<defs>
<clipPath id="clip0_363_253">
<rect width="30" height="30" fill="white"/>
</clipPath>
</defs>
</svg>
