<svg width="33" height="33" viewBox="0 0 33 33" fill="none" xmlns="http://www.w3.org/2000/svg">
<path fill-rule="evenodd" clip-rule="evenodd" d="M9.83626 13.8533L7.1696 13.8539L7.17018 16.5206L7.17105 20.5206L7.17135 21.8539C5.69859 21.8542 4.50494 23.0484 4.50526 24.5212L4.50555 25.8545C4.50587 27.3273 5.70004 28.5209 7.1728 28.5206L25.8395 28.5165C27.3122 28.5162 28.5059 27.322 28.5056 25.8492L28.5053 24.5159C28.5049 23.0432 27.3108 21.8495 25.838 21.8498L25.8377 20.5165L25.8368 16.5165L25.8363 13.8498L23.1696 13.8504L23.1702 16.5171L23.1711 20.5171L23.1713 21.8504L20.5047 21.851L20.5044 20.5177L20.5035 16.5177L20.5029 13.851L17.8363 13.8516L17.8368 16.5182L17.8377 20.5182L17.838 21.8516L15.1713 21.8522L15.1711 20.5188L15.1702 16.5188L15.1696 13.8522L12.5029 13.8527L12.5035 16.5194L12.5044 20.5194L12.5047 21.8527L9.83801 21.8533L9.83772 20.52L9.83685 16.52L9.83626 13.8533Z" fill="#B3A9FF"/>
<path d="M4.50218 10.4188C4.50193 9.28277 5.22144 8.2713 6.29473 7.89891L15.6274 4.66083C16.1932 4.46451 16.8086 4.46437 17.3745 4.66044L26.7085 7.89444C27.782 8.26636 28.5019 9.27753 28.5022 10.4136L28.5023 11.1824C28.5027 12.6552 27.309 13.8493 25.8363 13.8497L7.16959 13.8538C5.69683 13.8541 4.50267 12.6604 4.50234 11.1877L4.50218 10.4188Z" fill="black"/>
</svg>
