<svg width="30" height="30" viewBox="0 0 30 30" fill="none" xmlns="http://www.w3.org/2000/svg">
<path d="M2.49977 11.0002C2.49977 8.89999 2.49977 7.84989 2.9085 7.04772C3.26802 6.34211 3.8417 5.76843 4.54731 5.40891C5.34948 5.00018 6.39957 5.00018 8.49977 5.00018H21.4998C23.6 5.00018 24.6501 5.00018 25.4522 5.40891C26.1578 5.76843 26.7315 6.34211 27.091 7.04772C27.4998 7.84989 27.4998 8.89999 27.4998 11.0002V19.0002C27.4998 21.1004 27.4998 22.1505 27.091 22.9526C26.7315 23.6583 26.1578 24.2319 25.4522 24.5915C24.6501 25.0002 23.6 25.0002 21.4998 25.0002H8.49977C6.39957 25.0002 5.34948 25.0002 4.54731 24.5915C3.8417 24.2319 3.26802 23.6583 2.9085 22.9526C2.49977 22.1505 2.49977 21.1004 2.49977 19.0002V11.0002Z" fill="#B3A9FF"/>
<rect x="17.3437" y="16.875" width="10.875" height="10.875" rx="5.4375" fill="#BEFF6C"/>
<path fill-rule="evenodd" clip-rule="evenodd" d="M22.7813 19.5001C23.1696 19.5001 23.4844 19.8149 23.4844 20.2032V21.6095H24.8907C25.279 21.6095 25.5938 21.9243 25.5938 22.3126C25.5938 22.7009 25.279 23.0157 24.8907 23.0157H23.4844V24.422C23.4844 24.8103 23.1696 25.1251 22.7813 25.1251C22.393 25.1251 22.0782 24.8103 22.0782 24.422V23.0157H20.6719C20.2836 23.0157 19.9688 22.7009 19.9688 22.3126C19.9688 21.9243 20.2836 21.6095 20.6719 21.6095H22.0782V20.2032C22.0782 19.8149 22.393 19.5001 22.7813 19.5001Z" fill="#5A44FE"/>
<path d="M7.49994 18.7498C7.49994 18.0595 8.05958 17.4998 8.74994 17.4998H13.7499C14.4403 17.4998 14.9999 18.0595 14.9999 18.7498C14.9999 19.4402 14.4403 19.9998 13.7499 19.9998H8.74994C8.05958 19.9998 7.49994 19.4402 7.49994 18.7498Z" fill="black"/>
<path d="M2.49977 9.99982H27.4998V12.4998H2.49977V9.99982Z" fill="black"/>
</svg>
