<svg width="30" height="30" viewBox="0 0 30 30" fill="none" xmlns="http://www.w3.org/2000/svg">
<path d="M1.55652 9.63927C1.55652 7.62167 1.55652 6.61287 1.99609 5.84225C2.38275 5.1644 2.99973 4.61328 3.75859 4.2679C4.6213 3.87524 5.75066 3.87524 8.00936 3.87524H21.9905C24.2492 3.87524 25.3786 3.87524 26.2413 4.2679C27.0002 4.61328 27.6171 5.1644 28.0038 5.84225C28.4434 6.61287 28.4434 7.62167 28.4434 9.63927V17.3246C28.4434 19.3422 28.4434 20.351 28.0038 21.1217C27.6171 21.7995 27.0002 22.3506 26.2413 22.696C25.3786 23.0887 24.2492 23.0887 21.9905 23.0887H8.00936C5.75066 23.0887 4.6213 23.0887 3.75859 22.696C2.99973 22.3506 2.38275 21.7995 1.99609 21.1217C1.55652 20.351 1.55652 19.3422 1.55652 17.3246V9.63927Z" fill="#B3A9FF"/>
<path fill-rule="evenodd" clip-rule="evenodd" d="M1.55652 8.6786C4.52636 8.6786 6.93389 6.52807 6.93389 3.87524H9.62257C9.62257 7.85448 6.01128 11.0803 1.55652 11.0803V8.6786ZM17.6886 13.482C17.6886 14.8084 16.4849 15.8836 14.9999 15.8836C13.515 15.8836 12.3113 14.8084 12.3113 13.482C12.3113 12.1555 13.515 11.0803 14.9999 11.0803C16.4849 11.0803 17.6886 12.1555 17.6886 13.482ZM28.4434 8.6786C25.4735 8.6786 23.066 6.52807 23.066 3.87524H20.3773C20.3773 7.85448 23.9886 11.0803 28.4434 11.0803V8.6786ZM6.93389 23.0887C6.93389 20.4359 4.52636 18.2853 1.55652 18.2853V15.8836C6.01128 15.8836 9.62257 19.1094 9.62257 23.0887H6.93389ZM23.066 23.0887C23.066 20.4359 25.4735 18.2853 28.4434 18.2853V15.8836C23.9886 15.8836 20.3773 19.1094 20.3773 23.0887H23.066Z" fill="black"/>
<rect x="17.1815" y="15.2498" width="10.875" height="10.875" rx="5.4375" fill="#BEFF6C"/>
<path d="M22.2449 17.7171C22.3824 17.3866 22.8506 17.3866 22.9881 17.7171L23.6234 19.2442C23.681 19.3826 23.8108 19.4776 23.9602 19.4905L25.4689 19.6213C25.8144 19.6512 25.9628 20.0749 25.7114 20.3137L24.5653 21.4028C24.4613 21.5016 24.4178 21.6483 24.4511 21.7878L24.8378 23.4085C24.9209 23.7566 24.5421 24.0318 24.2366 23.8452L22.8263 22.984C22.6975 22.9054 22.5355 22.9054 22.4067 22.984L20.9964 23.8452C20.6909 24.0318 20.3121 23.7566 20.3952 23.4085L20.782 21.7873C20.8152 21.648 20.7719 21.5016 20.6684 21.4028L19.5261 20.3132C19.2755 20.0741 19.424 19.6513 19.7691 19.6213L21.2728 19.4906C21.4222 19.4776 21.552 19.3827 21.6095 19.2443L22.2449 17.7171Z" fill="#5A44FE"/>
</svg>
