<svg width="33" height="33" viewBox="0 0 33 33" fill="none" xmlns="http://www.w3.org/2000/svg">
<path d="M8.5021 10.1207C8.50177 8.6272 8.50161 7.88046 8.79213 7.30997C9.04769 6.80814 9.45555 6.40011 9.95725 6.14433C10.5276 5.85356 11.2744 5.8534 12.7678 5.85307L25.5678 5.85027C27.0613 5.84995 27.808 5.84978 28.3785 6.14031C28.8804 6.39586 29.2884 6.80372 29.5442 7.30543C29.8349 7.8758 29.8351 8.62253 29.8354 10.116L29.8371 17.5827C29.8374 19.0761 29.8376 19.8229 29.547 20.3934C29.2915 20.8952 28.8836 21.3032 28.3819 21.559C27.8115 21.8498 27.0648 21.8499 25.5713 21.8503L12.7713 21.8531C11.2779 21.8534 10.5311 21.8536 9.96063 21.563C9.4588 21.3075 9.05077 20.8996 8.79499 20.3979C8.50422 19.8275 8.50406 19.0808 8.50373 17.5873L8.5021 10.1207Z" fill="#B3A9FF"/>
<path fill-rule="evenodd" clip-rule="evenodd" d="M3.45997 12.6444C3.27261 13.0124 3.20614 13.4536 3.18265 14.1211C3.16997 14.4816 3.16362 14.6619 3.23438 14.8096C3.29523 14.9367 3.40198 15.0472 3.52682 15.1125C3.67198 15.1884 3.86047 15.1883 4.23744 15.1882L23.4356 15.184C23.8126 15.184 24.0011 15.1839 24.1462 15.108C24.271 15.0427 24.3777 14.9321 24.4385 14.805C24.5092 14.6573 24.5028 14.477 24.49 14.1164C24.4662 13.4489 24.3995 13.0077 24.212 12.6399C23.9562 12.1382 23.5482 11.7303 23.0464 11.4748C22.4759 11.1843 21.7291 11.1844 20.2357 11.1847L7.43567 11.1875C5.94219 11.1879 5.19546 11.188 4.62509 11.4788C4.12338 11.7346 3.71552 12.1426 3.45997 12.6444ZM24.504 18.9171C24.5039 18.5438 24.5039 18.3571 24.4312 18.2145C24.3673 18.0891 24.2653 17.9871 24.1398 17.9232C23.9972 17.8506 23.8105 17.8506 23.4371 17.8507L4.23712 17.8549C3.86375 17.855 3.67707 17.855 3.53448 17.9277C3.40905 17.9917 3.30709 18.0937 3.2432 18.2191C3.17057 18.3618 3.17061 18.5484 3.17069 18.9218L3.17156 22.9218C3.17189 24.4153 3.17205 25.162 3.46283 25.7324C3.7186 26.2341 4.12664 26.642 4.62846 26.8975C5.19895 27.188 5.94569 27.1879 7.43916 27.1875L20.2392 27.1847C21.7326 27.1844 22.4794 27.1843 23.0497 26.8935C23.5515 26.6377 23.9593 26.2297 24.2149 25.7279C24.5054 25.1574 24.5052 24.4106 24.5049 22.9171L24.504 18.9171Z" fill="black"/>
</svg>
