<svg width="33" height="33" viewBox="0 0 33 33" fill="none" xmlns="http://www.w3.org/2000/svg">
<path d="M29.8368 16.5155C29.8384 23.8793 23.8702 29.8501 16.5064 29.8517C9.1426 29.8534 3.17176 23.8851 3.17015 16.5213C3.16854 9.15753 9.13677 3.18668 16.5006 3.18507C23.8644 3.18346 29.8352 9.1517 29.8368 16.5155Z" fill="#CCC5FF"/>
<path fill-rule="evenodd" clip-rule="evenodd" d="M15.1681 7.18549C15.168 6.44911 15.7648 5.85202 16.5012 5.85186C17.2376 5.8517 17.8346 6.44852 17.8348 7.1849L17.8351 8.51824C20.0442 8.51775 21.8355 10.3082 21.836 12.5174C21.8361 13.2537 21.2393 13.8508 20.5029 13.851C19.7665 13.8511 19.1695 13.2543 19.1693 12.5179C19.1691 11.7816 18.5721 11.1847 17.8357 11.1849L15.169 11.1855C14.4326 11.1856 13.8358 11.7827 13.836 12.5191L13.8361 13.2638C13.8363 13.8377 14.2036 14.3471 14.7481 14.5285L19.1016 15.9786C20.7351 16.5227 21.8372 18.051 21.8376 19.7727L21.8377 20.5174C21.8382 22.7265 20.0477 24.5178 17.8386 24.5182L17.8389 25.8516C17.839 26.5879 17.2422 27.185 16.5058 27.1852C15.7695 27.1854 15.1724 26.5885 15.1722 25.8522L15.1719 24.5188C12.9628 24.5193 11.1715 22.7288 11.1711 20.5197C11.1709 19.7833 11.7677 19.1862 12.5041 19.1861C13.2405 19.1859 13.8376 19.7827 13.8377 20.5191C13.8379 21.2555 14.435 21.8523 15.1713 21.8522L17.838 21.8516C18.5744 21.8514 19.1712 21.2543 19.1711 20.5179L19.1709 19.7733C19.1708 19.1994 18.8034 18.69 18.2589 18.5086L13.9054 17.0585C12.2719 16.5144 11.1698 14.9861 11.1695 13.2643L11.1693 12.5197C11.1688 10.3106 12.9593 8.5193 15.1684 8.51882L15.1681 7.18549Z" fill="black"/>
</svg>
