<svg width="12" height="14" viewBox="0 0 12 14" fill="none" xmlns="http://www.w3.org/2000/svg">
<path fill-rule="evenodd" clip-rule="evenodd" d="M6 0.254639C2.675 0.254639 0 3.22466 0 6.91637C0 9.85863 1.725 12.3568 4.1 13.245C4.4 13.3005 4.5 13.1062 4.5 12.9119C4.5 12.7454 4.5 12.329 4.5 11.7739C2.825 12.1902 2.475 10.8856 2.475 10.8856C2.2 10.1084 1.8 9.91415 1.8 9.91415C1.25 9.49779 1.85 9.49779 1.85 9.49779C2.45 9.5533 2.775 10.1917 2.775 10.1917C3.3 11.2187 4.175 10.9134 4.525 10.7469C4.575 10.3027 4.725 10.0252 4.9 9.85863C3.575 9.69209 2.175 9.10919 2.175 6.55552C2.175 5.83384 2.4 5.22318 2.8 4.77906C2.75 4.61252 2.525 3.94635 2.85 3.0026C2.85 3.0026 3.35 2.83606 4.5 3.69653C4.975 3.55775 5.5 3.47447 6 3.47447C6.5 3.47447 7.025 3.55775 7.5 3.69653C8.65 2.83606 9.15 3.0026 9.15 3.0026C9.475 3.91859 9.275 4.58476 9.2 4.77906C9.575 5.25094 9.825 5.83384 9.825 6.55552C9.825 9.10919 8.425 9.66433 7.075 9.83088C7.3 10.0252 7.475 10.4415 7.475 11.0522C7.475 11.9404 7.475 12.6621 7.475 12.8842C7.475 13.0507 7.575 13.2728 7.9 13.2173C10.275 12.3568 12 9.85863 12 6.91637C12 3.22466 9.325 0.254639 6 0.254639Z" fill="white"/>
</svg>
