<svg width="201" height="59" viewBox="0 0 201 59" fill="none" xmlns="http://www.w3.org/2000/svg">
<g clip-path="url(#clip0_97_36231)">
<path d="M196.712 1H4.28833C2.47224 1 1 2.45827 1 4.25714V54.7429C1 56.5417 2.47224 58 4.28833 58H196.712C198.528 58 200 56.5417 200 54.7429V4.25714C200 2.45827 198.528 1 196.712 1Z" stroke="#090909" stroke-width="2"/>
<path d="M71 15.7903C71 16.9516 70.7334 17.9678 70.0667 18.6936C69.2667 19.5645 68.3334 20 67.1334 20C65.9334 20 65 19.5645 64.2 18.6936C63.4 17.8225 63 16.8064 63 15.5C63 14.1936 63.4 13.1775 64.2 12.3064C65 11.4355 65.9334 11 67.1334 11C67.6667 11 68.2 11.1451 68.7333 11.4355C69.2666 11.7258 69.6667 12.0162 69.9333 12.4516L69.2667 13.1774C68.7333 12.4516 68.0666 12.1613 67.1334 12.1613C66.3333 12.1613 65.5333 12.4516 65 13.1774C64.3333 13.758 64.0667 14.6291 64.0667 15.6451C64.0667 16.6613 64.3333 17.5322 65 18.1129C65.6666 18.6936 66.3333 19.129 67.1334 19.129C68.0666 19.129 68.7333 18.8387 69.4 18.1129C69.8 17.6774 70.0667 17.0967 70.0667 16.3709H67.1334V15.3549H71C71 15.3549 71 15.5 71 15.7903Z" fill="#090909" stroke="#090909" stroke-width="0.2" stroke-miterlimit="10"/>
<path d="M78 12.0667H74.1429V14.6H77.7142V15.5334H74.1429V18.0667H78V19H73V11H78V12.0667Z" fill="#090909" stroke="#090909" stroke-width="0.2" stroke-miterlimit="10"/>
<path d="M83.572 19H82.4287V11.9334H80V11H86V11.9334H83.572V19Z" fill="#090909" stroke="#090909" stroke-width="0.2" stroke-miterlimit="10"/>
<path d="M90 19V11H91V19H90Z" fill="#090909" stroke="#090909" stroke-width="0.2" stroke-miterlimit="10"/>
<path d="M95.6581 19H94.488V11.9334H92V11H98V11.9334H95.512V19H95.6581Z" fill="#090909" stroke="#090909" stroke-width="0.2" stroke-miterlimit="10"/>
<path d="M108.694 18.6936C107.823 19.5645 106.806 20 105.5 20C104.194 20 103.178 19.5645 102.306 18.6936C101.436 17.8225 101 16.8064 101 15.5C101 14.1936 101.436 13.1775 102.306 12.3064C103.178 11.4355 104.194 11 105.5 11C106.806 11 107.823 11.4355 108.694 12.3064C109.564 13.1775 110 14.1936 110 15.5C110 16.6613 109.564 17.8225 108.694 18.6936ZM103.178 17.9678C103.759 18.5484 104.629 18.9838 105.5 18.9838C106.372 18.9838 107.242 18.6936 107.823 17.9678C108.404 17.3871 108.839 16.5162 108.839 15.5C108.839 14.4838 108.549 13.6129 107.823 13.0322C107.242 12.4516 106.372 12.0162 105.5 12.0162C104.629 12.0162 103.759 12.3064 103.178 13.0322C102.597 13.6129 102.161 14.4838 102.161 15.5C102.161 16.3709 102.452 17.242 103.178 17.9678Z" fill="#090909" stroke="#090909" stroke-width="0.2" stroke-miterlimit="10"/>
<path d="M112 19V11H113.174L116.956 17.2667V15.6667V11H118V19H116.956L112.913 12.4667V14.0667V19H112Z" fill="#090909" stroke="#090909" stroke-width="0.2" stroke-miterlimit="10"/>
<path d="M101.298 31.6745C97.8938 31.6745 95.199 34.2308 95.199 37.7811C95.199 41.1894 97.8938 43.8876 101.298 43.8876C104.702 43.8876 107.397 41.3313 107.397 37.7811C107.397 34.2308 104.702 31.6745 101.298 31.6745ZM101.298 41.3313C99.4538 41.3313 97.8938 39.7693 97.8938 37.6391C97.8938 35.5089 99.4538 33.9468 101.298 33.9468C103.142 33.9468 104.702 35.3669 104.702 37.6391C104.702 39.9112 103.142 41.3313 101.298 41.3313ZM88.106 31.6745C84.7021 31.6745 82.0071 34.2308 82.0071 37.7811C82.0071 41.1894 84.7021 43.8876 88.106 43.8876C91.5108 43.8876 94.2057 41.3313 94.2057 37.7811C94.2057 34.2308 91.5108 31.6745 88.106 31.6745ZM88.106 41.3313C86.2628 41.3313 84.7021 39.7693 84.7021 37.6391C84.7021 35.5089 86.2628 33.9468 88.106 33.9468C89.9501 33.9468 91.5109 35.3669 91.5109 37.6391C91.5109 39.9112 89.9501 41.3313 88.106 41.3313ZM72.3617 33.5207V36.0769H78.461C78.3192 37.4971 77.7518 38.6331 77.0426 39.3432C76.1915 40.1952 74.773 41.1894 72.3617 41.1894C68.5319 41.1894 65.695 38.2071 65.695 34.3728C65.695 30.5385 68.6738 27.5562 72.3617 27.5562C74.3475 27.5562 75.9078 28.4083 77.0426 29.4024L78.8865 27.5562C77.3262 26.1361 75.3404 25 72.5036 25C67.3972 25 63 29.2604 63 34.3728C63 39.4852 67.3972 43.7456 72.5036 43.7456C75.3404 43.7456 77.3262 42.8935 79.0284 41.0474C80.7305 39.3432 81.2978 36.929 81.2978 35.0829C81.2978 34.5148 81.2978 33.9468 81.156 33.5207H72.3617ZM136.759 35.5089C136.192 34.0888 134.773 31.6745 131.653 31.6745C128.532 31.6745 125.979 34.0888 125.979 37.7811C125.979 41.1894 128.532 43.8876 131.936 43.8876C134.631 43.8876 136.333 42.1835 136.901 41.1894L134.915 39.7692C134.206 40.7633 133.354 41.4733 131.936 41.4733C130.518 41.4733 129.666 40.9054 128.957 39.6273L137.043 36.2189L136.759 35.5089ZM128.532 37.4971C128.532 35.2249 130.376 33.9468 131.653 33.9468C132.645 33.9468 133.639 34.5148 133.922 35.2249L128.532 37.4971ZM121.865 43.3195H124.56V25.5681H121.865V43.3195ZM117.61 32.9526C116.9 32.2426 115.766 31.5325 114.347 31.5325C111.369 31.5325 108.532 34.2308 108.532 37.6391C108.532 41.0474 111.227 43.6036 114.347 43.6036C115.766 43.6036 116.9 42.8935 117.468 42.1835H117.61V43.0355C117.61 45.3077 116.334 46.5858 114.347 46.5858C112.787 46.5858 111.652 45.4497 111.369 44.4556L109.099 45.4497C109.808 47.0118 111.511 49 114.49 49C117.61 49 120.163 47.1538 120.163 42.7515V31.9586H117.61V32.9526ZM114.49 41.3313C112.646 41.3313 111.085 39.7693 111.085 37.6391C111.085 35.5089 112.646 33.9468 114.49 33.9468C116.334 33.9468 117.752 35.5089 117.752 37.6391C117.752 39.7693 116.334 41.3313 114.49 41.3313ZM149.099 25.5681H142.716V43.3195H145.411V36.645H149.099C152.078 36.645 154.915 34.5148 154.915 31.1066C154.915 27.6982 152.078 25.5681 149.099 25.5681ZM149.241 34.2308H145.411V28.1243H149.241C151.227 28.1243 152.362 29.8284 152.362 31.1066C152.22 32.5267 151.085 34.2308 149.241 34.2308ZM165.553 31.6745C163.567 31.6745 161.581 32.5267 160.872 34.3728L163.284 35.3669C163.851 34.3728 164.702 34.0888 165.695 34.0888C167.113 34.0888 168.39 34.9409 168.532 36.361V36.503C168.107 36.2189 166.972 35.7929 165.837 35.7929C163.284 35.7929 160.73 37.213 160.73 39.7692C160.73 42.1835 162.858 43.7456 165.128 43.7456C166.972 43.7456 167.822 42.8935 168.532 42.0415H168.673V43.4616H171.226V36.645C170.943 33.3787 168.532 31.6745 165.553 31.6745ZM165.269 41.3313C164.419 41.3313 163.142 40.9054 163.142 39.7692C163.142 38.3491 164.702 37.9231 165.978 37.9231C167.113 37.9231 167.681 38.2072 168.39 38.4911C168.107 40.1953 166.688 41.3313 165.269 41.3313ZM180.163 31.9586L177.184 39.6273H177.043L173.922 31.9586H171.085L175.766 42.7515L173.071 48.716H175.766L183 31.9586H180.163ZM156.333 43.3195H159.028V25.5681H156.333V43.3195Z" fill="#090909"/>
<path d="M18.8507 47C18.2835 46.7166 18 46.0079 18 45.2993C18 45.1575 18 44.874 18 44.7323C18 34.2441 18 23.7559 18 13.4094C18 12.8425 18.1418 12.4173 18.2835 11.8504C18.4254 11.5669 18.7089 11.2834 18.9926 11C25.0896 17.0945 31.0448 23.1889 37 29.2835C30.903 34.9527 24.9478 40.9055 18.8507 47Z" fill="#090909"/>
<path d="M43 22.9274C41.3291 24.5726 39.5189 26.2177 37.8481 28C32.2785 22.379 26.5696 16.7581 21 11.1371C21 11.1371 21 11 21.1392 11C28.3798 14.9758 35.6202 18.9516 43 22.9274Z" fill="#090909"/>
<path d="M21 47C26.6051 41.3333 32.3503 35.6667 37.9554 30C39.4968 31.5583 41.1783 33.1167 43 34.8166C35.7133 38.925 28.4268 43.0333 21.1401 47H21Z" fill="#090909"/>
<path d="M43.3696 34C41.5326 32.24 39.837 30.48 38 28.7201C39.837 26.8134 41.6739 24.9067 43.5108 23C44.0761 23.2933 44.6413 23.5867 45.2065 24.0266C46.6196 24.9067 48.174 25.64 49.587 26.52C50.0109 26.6666 50.2935 26.96 50.5761 27.4C51.1413 28.1333 51.1413 28.8667 50.5761 29.6C50.2935 29.8933 50.0109 30.1867 49.587 30.3334C47.6087 31.6534 45.4892 32.8267 43.3696 34Z" fill="#090909"/>
</g>
<defs>
<clipPath id="clip0_97_36231">
<rect width="201" height="59" fill="white"/>
</clipPath>
</defs>
</svg>
