<svg width="13" height="15" viewBox="0 0 13 15" fill="none" xmlns="http://www.w3.org/2000/svg">
<path d="M6.5 2.01591C8.2355 2.01591 8.44102 2.02291 9.12662 2.05658C9.53883 2.06201 9.94713 2.14352 10.3338 2.29757C10.6141 2.41401 10.8688 2.59238 11.0813 2.82121C11.2938 3.05003 11.4594 3.32424 11.5675 3.62617C11.7106 4.04252 11.7863 4.4822 11.7913 4.92611C11.8223 5.6644 11.8291 5.88573 11.8291 7.75464C11.8291 9.62355 11.8226 9.84487 11.7913 10.5832C11.7863 11.0271 11.7106 11.4668 11.5675 11.8831C11.4594 12.185 11.2938 12.4592 11.0813 12.6881C10.8688 12.9169 10.6141 13.0953 10.3338 13.2117C9.94713 13.3658 9.53883 13.4473 9.12662 13.4527C8.44133 13.486 8.23581 13.4934 6.5 13.4934C4.76419 13.4934 4.55867 13.4864 3.87338 13.4527C3.46117 13.4473 3.05287 13.3658 2.66624 13.2117C2.38586 13.0953 2.13123 12.9169 1.91874 12.6881C1.70625 12.4592 1.54061 12.185 1.43248 11.8831C1.28943 11.4668 1.21373 11.0271 1.20869 10.5832C1.17774 9.84487 1.17093 9.62355 1.17093 7.75464C1.17093 5.88573 1.17743 5.6644 1.20869 4.92611C1.21373 4.4822 1.28943 4.04252 1.43248 3.62617C1.54061 3.32424 1.70625 3.05003 1.91874 2.82121C2.13123 2.59238 2.38586 2.41401 2.66624 2.29757C3.05287 2.14352 3.46117 2.06201 3.87338 2.05658C4.55898 2.02324 4.7645 2.01591 6.5 2.01591ZM6.5 0.754639C4.73571 0.754639 4.51348 0.762638 3.82014 0.796637C3.28066 0.808192 2.7469 0.918191 2.24157 1.12195C1.80808 1.29783 1.41545 1.57345 1.09107 1.92958C0.760067 2.27902 0.503903 2.70208 0.340476 3.16919C0.151258 3.71336 0.0491115 4.28815 0.038381 4.86911C0.00742859 5.61507 0 5.8544 0 7.75431C0 9.65421 0.00742855 9.89354 0.039 10.6402C0.0497305 11.2211 0.151877 11.7959 0.341095 12.3401C0.504341 12.8071 0.76029 13.2302 1.09107 13.5797C1.41563 13.9359 1.80848 14.2115 2.24219 14.3873C2.74752 14.5911 3.28128 14.7011 3.82076 14.7126C4.5141 14.746 4.7354 14.7546 6.50062 14.7546C8.26583 14.7546 8.48714 14.7466 9.18048 14.7126C9.71996 14.7011 10.2537 14.5911 10.759 14.3873C11.1907 14.2071 11.5827 13.9319 11.9099 13.5793C12.2372 13.2267 12.4925 12.8044 12.6595 12.3394C12.8487 11.7952 12.9509 11.2205 12.9616 10.6395C12.9926 9.89354 13 9.65421 13 7.75431C13 5.8544 12.9926 5.61507 12.961 4.86844C12.9503 4.28749 12.8481 3.7127 12.6589 3.16852C12.4957 2.70147 12.2397 2.27842 11.9089 1.92892C11.5844 1.57271 11.1915 1.29708 10.7578 1.12129C10.2525 0.917524 9.71872 0.807525 9.17924 0.79597C8.48652 0.762638 8.26429 0.754639 6.5 0.754639Z" fill="white"/>
<path d="M6.5 3.75464C5.80777 3.75464 5.13108 3.95991 4.55551 4.3445C3.97993 4.72908 3.53133 5.27571 3.26642 5.91525C3.00152 6.55479 2.9322 7.25852 3.06725 7.93745C3.2023 8.61639 3.53564 9.24003 4.02513 9.72951C4.51461 10.219 5.13825 10.5523 5.81719 10.6874C6.49612 10.8224 7.19985 10.7531 7.83939 10.4882C8.47893 10.2233 9.02556 9.7747 9.41014 9.19913C9.79473 8.62356 10 7.94687 10 7.25464C10 6.32638 9.63125 5.43614 8.97487 4.77977C8.3185 4.12339 7.42826 3.75464 6.5 3.75464ZM6.5 9.52652C6.05066 9.52652 5.61142 9.39328 5.23781 9.14364C4.8642 8.894 4.57301 8.53918 4.40105 8.12405C4.2291 7.70892 4.18411 7.25212 4.27177 6.81141C4.35943 6.37071 4.57581 5.9659 4.89354 5.64817C5.21127 5.33044 5.61608 5.11407 6.05678 5.02641C6.49748 4.93875 6.95428 4.98374 7.36941 5.15569C7.78455 5.32764 8.13937 5.61884 8.389 5.99245C8.63864 6.36606 8.77188 6.8053 8.77188 7.25464C8.77188 7.85718 8.53253 8.43504 8.10647 8.8611C7.6804 9.28716 7.10254 9.52652 6.5 9.52652Z" fill="white"/>
<path d="M10 4.75464C10.5523 4.75464 11 4.30692 11 3.75464C11 3.20235 10.5523 2.75464 10 2.75464C9.44772 2.75464 9 3.20235 9 3.75464C9 4.30692 9.44772 4.75464 10 4.75464Z" fill="white"/>
</svg>
