<svg width="37" height="37" viewBox="0 0 37 37" fill="none" xmlns="http://www.w3.org/2000/svg">
<path d="M0.255876 11.061C0.433953 5.82274 4.4403 1.51441 9.65179 0.956812L14.0933 0.481588C17.0854 0.161453 20.1032 0.163142 23.0949 0.486626L27.3596 0.947753C32.566 1.51071 36.5658 5.81689 36.7438 11.0506L37 18.5877L36.747 26.03C36.5677 31.3046 32.5083 35.6303 27.2556 36.1439L22.5956 36.5995C19.8717 36.8659 17.1283 36.8659 14.4044 36.5995L9.74436 36.1439C4.4917 35.6303 0.432322 31.3046 0.253006 26.03L0 18.5877L0.255876 11.061Z" fill="#5A45FE"/>
<path fill-rule="evenodd" clip-rule="evenodd" d="M22.6087 26.6633C21.5661 27.1044 20.319 27.3249 18.8674 27.3249C17.488 27.3249 16.2851 27.1244 15.2585 26.7234C14.24 26.3144 13.438 25.729 12.8526 24.9671C12.2671 24.2052 11.9423 23.299 11.8782 22.2484L11.8661 22.0439H15.3066L15.3307 22.1762C15.4029 22.6253 15.5994 23.0143 15.9202 23.3431C16.2409 23.6639 16.662 23.9165 17.1833 24.1009C17.7046 24.2774 18.294 24.3656 18.9516 24.3656C19.6253 24.3656 20.2027 24.2734 20.6839 24.0889C21.1731 23.9045 21.5501 23.6478 21.8147 23.319C22.0874 22.9822 22.2237 22.5932 22.2237 22.1521V22.1401C22.2237 21.5546 21.9912 21.0975 21.526 20.7687C21.0689 20.4319 20.303 20.1512 19.2283 19.9266L17.3878 19.5657C15.6635 19.2209 14.3723 18.6354 13.5142 17.8094C13.2565 17.5613 13.0375 17.2916 12.8572 17.0001H21.027C22.6316 17.3634 23.8205 17.9058 24.5936 18.6274C25.4357 19.4053 25.8567 20.476 25.8567 21.8394V21.8514C25.8567 22.9661 25.576 23.9365 25.0146 24.7626C24.4613 25.5806 23.6593 26.2142 22.6087 26.6633ZM12.2403 15.0001C12.2314 14.8724 12.227 14.7422 12.227 14.6095V14.5975C12.235 13.5388 12.5197 12.6166 13.0811 11.8306C13.6505 11.0367 14.4325 10.4191 15.4269 9.97804C16.4294 9.53695 17.5682 9.31641 18.8434 9.31641C20.1827 9.31641 21.3375 9.52893 22.3079 9.95398C23.2864 10.371 24.0482 10.9605 24.5936 11.7224C25.1389 12.4842 25.4437 13.3704 25.5078 14.3809L25.5199 14.5854L22.0914 14.5854L22.0673 14.4411C22.0112 13.992 21.8388 13.607 21.5501 13.2862C21.2694 12.9654 20.8964 12.7168 20.4313 12.5404C19.9742 12.3639 19.4449 12.2757 18.8434 12.2757C18.2339 12.2757 17.7046 12.3639 17.2555 12.5404C16.8063 12.7168 16.4615 12.9654 16.2209 13.2862C15.9803 13.599 15.86 13.9639 15.86 14.3809V14.393C15.86 14.6114 15.8973 14.8138 15.972 15.0001H12.2403Z" fill="white"/>
</svg>
