<svg width="136" height="37" viewBox="0 0 136 37" fill="none" xmlns="http://www.w3.org/2000/svg">
<path d="M0.255876 11.061C0.433953 5.82274 4.4403 1.51441 9.65179 0.956812L14.0933 0.481588C17.0854 0.161453 20.1032 0.163142 23.0949 0.486626L27.3596 0.947753C32.566 1.51071 36.5658 5.81689 36.7438 11.0506L37 18.5877L36.747 26.03C36.5677 31.3046 32.5083 35.6303 27.2556 36.1439L22.5956 36.5995C19.8717 36.8659 17.1283 36.8659 14.4044 36.5995L9.74436 36.1439C4.4917 35.6303 0.432322 31.3046 0.253006 26.03L0 18.5877L0.255876 11.061Z" fill="#5A45FE"/>
<path fill-rule="evenodd" clip-rule="evenodd" d="M22.6087 26.6633C21.5661 27.1044 20.319 27.3249 18.8674 27.3249C17.488 27.3249 16.2851 27.1244 15.2585 26.7234C14.24 26.3144 13.438 25.729 12.8526 24.9671C12.2671 24.2052 11.9423 23.299 11.8782 22.2484L11.8661 22.0439H15.3066L15.3307 22.1762C15.4029 22.6253 15.5994 23.0143 15.9202 23.3431C16.2409 23.6639 16.662 23.9165 17.1833 24.1009C17.7046 24.2774 18.294 24.3656 18.9516 24.3656C19.6253 24.3656 20.2027 24.2734 20.6839 24.0889C21.1731 23.9045 21.5501 23.6478 21.8147 23.319C22.0874 22.9822 22.2237 22.5932 22.2237 22.1521V22.1401C22.2237 21.5546 21.9912 21.0975 21.526 20.7687C21.0689 20.4319 20.303 20.1512 19.2283 19.9266L17.3878 19.5657C15.6635 19.2209 14.3723 18.6354 13.5142 17.8094C13.2565 17.5613 13.0375 17.2916 12.8572 17.0001H21.027C22.6316 17.3634 23.8205 17.9058 24.5936 18.6274C25.4357 19.4053 25.8567 20.476 25.8567 21.8394V21.8514C25.8567 22.9661 25.576 23.9365 25.0146 24.7626C24.4613 25.5806 23.6593 26.2142 22.6087 26.6633ZM12.2403 15.0001C12.2314 14.8724 12.227 14.7422 12.227 14.6095V14.5975C12.235 13.5388 12.5197 12.6166 13.0811 11.8306C13.6505 11.0367 14.4325 10.4191 15.4269 9.97804C16.4294 9.53695 17.5682 9.31641 18.8434 9.31641C20.1827 9.31641 21.3375 9.52893 22.3079 9.95398C23.2864 10.371 24.0482 10.9605 24.5936 11.7224C25.1389 12.4842 25.4437 13.3704 25.5078 14.3809L25.5199 14.5854L22.0914 14.5854L22.0673 14.4411C22.0112 13.992 21.8388 13.607 21.5501 13.2862C21.2694 12.9654 20.8964 12.7168 20.4313 12.5404C19.9742 12.3639 19.4449 12.2757 18.8434 12.2757C18.2339 12.2757 17.7046 12.3639 17.2555 12.5404C16.8063 12.7168 16.4615 12.9654 16.2209 13.2862C15.9803 13.599 15.86 13.9639 15.86 14.3809V14.393C15.86 14.6114 15.8973 14.8138 15.972 15.0001H12.2403Z" fill="white"/>
<path d="M54.2717 21.43C54.2717 22.1327 54.0847 22.7673 53.7107 23.334C53.348 23.9007 52.821 24.3483 52.1297 24.677C51.4384 25.0057 50.5997 25.17 49.6137 25.17C48.6277 25.17 47.7777 25.0057 47.0637 24.677C46.361 24.337 45.8114 23.861 45.4147 23.249C45.018 22.637 44.7914 21.9287 44.7347 21.124H46.6387C46.684 21.8947 46.9504 22.5123 47.4377 22.977C47.9364 23.4417 48.6504 23.674 49.5797 23.674C50.101 23.674 50.5657 23.5947 50.9737 23.436C51.3817 23.2773 51.699 23.0507 51.9257 22.756C52.1637 22.4613 52.2827 22.1043 52.2827 21.685C52.2827 21.175 52.1127 20.7783 51.7727 20.495C51.4327 20.2117 50.9114 19.9963 50.2087 19.849L48.4407 19.509C48.01 19.4183 47.5964 19.2937 47.1997 19.135C46.8144 18.9763 46.463 18.7723 46.1457 18.523C45.8397 18.2623 45.596 17.945 45.4147 17.571C45.2447 17.1857 45.1597 16.738 45.1597 16.228C45.1597 15.5367 45.341 14.919 45.7037 14.375C46.0777 13.831 46.5877 13.406 47.2337 13.1C47.891 12.7827 48.6447 12.624 49.4947 12.624C50.3447 12.624 51.104 12.7883 51.7727 13.117C52.4527 13.4457 52.9967 13.9047 53.4047 14.494C53.824 15.0833 54.0564 15.786 54.1017 16.602H52.1977C52.1637 16.1147 52.0277 15.684 51.7897 15.31C51.563 14.936 51.257 14.647 50.8717 14.443C50.4864 14.2277 50.033 14.12 49.5117 14.12C48.9904 14.12 48.5484 14.2163 48.1857 14.409C47.823 14.5903 47.5454 14.834 47.3527 15.14C47.16 15.4347 47.0637 15.7577 47.0637 16.109C47.0637 16.4943 47.16 16.806 47.3527 17.044C47.5567 17.2707 47.823 17.452 48.1517 17.588C48.4804 17.724 48.8317 17.8317 49.2057 17.911L51.0077 18.268C52.0617 18.4833 52.8664 18.8347 53.4217 19.322C53.9884 19.8093 54.2717 20.512 54.2717 21.43ZM58.1196 25H56.4026V15.99H58.0006V17.486C58.3066 16.9647 58.6976 16.5567 59.1736 16.262C59.6496 15.9673 60.1992 15.82 60.8226 15.82C61.4799 15.82 62.0466 15.9843 62.5226 16.313C63.0099 16.6303 63.3556 17.0893 63.5596 17.69C63.8769 17.112 64.2906 16.6587 64.8006 16.33C65.3106 15.99 65.9112 15.82 66.6026 15.82C67.5319 15.82 68.2686 16.1147 68.8126 16.704C69.3679 17.282 69.6456 18.1037 69.6456 19.169V25H67.9286V19.713C67.9286 18.9537 67.7642 18.37 67.4356 17.962C67.1069 17.5427 66.6309 17.333 66.0076 17.333C65.6222 17.333 65.2652 17.4407 64.9366 17.656C64.6192 17.86 64.3642 18.149 64.1716 18.523C63.9789 18.897 63.8826 19.3333 63.8826 19.832V25H62.1656V19.713C62.1656 18.9537 62.0012 18.37 61.6726 17.962C61.3552 17.5427 60.8792 17.333 60.2446 17.333C59.8479 17.333 59.4852 17.4407 59.1566 17.656C58.8392 17.86 58.5842 18.149 58.3916 18.523C58.2102 18.897 58.1196 19.3333 58.1196 19.832V25ZM77.5006 25V23.606C77.2173 24.1047 76.832 24.49 76.3446 24.762C75.8573 25.034 75.2793 25.17 74.6106 25.17C73.6813 25.17 72.9333 24.9263 72.3666 24.439C71.8 23.9403 71.5166 23.2773 71.5166 22.45C71.5166 21.566 71.8623 20.8973 72.5536 20.444C73.2563 19.9907 74.2763 19.764 75.6136 19.764C75.8743 19.764 76.1293 19.7697 76.3786 19.781C76.628 19.7923 76.934 19.8207 77.2966 19.866V19.203C77.2966 18.5683 77.1323 18.0753 76.8036 17.724C76.475 17.3613 76.0103 17.18 75.4096 17.18C74.7863 17.18 74.2876 17.3613 73.9136 17.724C73.551 18.0753 73.3583 18.5627 73.3356 19.186H71.7716C71.7943 18.506 71.9586 17.9167 72.2646 17.418C72.582 16.908 73.007 16.517 73.5396 16.245C74.0836 15.9617 74.707 15.82 75.4096 15.82C76.5203 15.82 77.3816 16.1203 77.9936 16.721C78.617 17.3103 78.9286 18.1433 78.9286 19.22V25H77.5006ZM73.1486 22.399C73.1486 22.8637 73.313 23.2377 73.6416 23.521C73.9703 23.8043 74.4066 23.946 74.9506 23.946C75.676 23.946 76.2483 23.742 76.6676 23.334C77.087 22.9147 77.2966 22.3593 77.2966 21.668V20.937C76.968 20.903 76.679 20.8803 76.4296 20.869C76.1803 20.8463 75.9423 20.835 75.7156 20.835C74.8543 20.835 74.2083 20.9653 73.7776 21.226C73.3583 21.4753 73.1486 21.8663 73.1486 22.399ZM83.0433 20.393V25H81.3263V15.99H82.9243V17.894C83.2416 17.2707 83.7119 16.7777 84.3353 16.415C84.9699 16.0523 85.6556 15.871 86.3923 15.871V17.656C85.7463 17.622 85.1683 17.6957 84.6583 17.877C84.1596 18.0583 83.7629 18.3587 83.4683 18.778C83.1849 19.186 83.0433 19.7243 83.0433 20.393ZM93.4839 23.334V24.847C93.2233 24.9717 92.9683 25.0567 92.7189 25.102C92.4809 25.1473 92.2259 25.17 91.9539 25.17C91.3986 25.17 90.9056 25.068 90.4749 24.864C90.0556 24.66 89.7269 24.3427 89.4889 23.912C89.2509 23.4813 89.1319 22.9373 89.1319 22.28V17.452H87.1429V15.99H89.1319V13.321H90.8489V15.99H93.5689V17.452H90.8489V21.889C90.8489 22.5123 90.9849 22.9487 91.2569 23.198C91.5403 23.4473 91.9086 23.572 92.3619 23.572C92.5659 23.572 92.7586 23.555 92.9399 23.521C93.1326 23.4757 93.3139 23.4133 93.4839 23.334ZM104.898 21.328C104.898 22.4727 104.495 23.3737 103.691 24.031C102.886 24.677 101.775 25 100.359 25H95.3096V12.794H100.206C101.543 12.794 102.597 13.0773 103.368 13.644C104.15 14.2107 104.541 15.0267 104.541 16.092C104.541 16.6247 104.405 17.1007 104.133 17.52C103.861 17.9393 103.47 18.302 102.96 18.608C103.583 18.8687 104.059 19.2257 104.388 19.679C104.728 20.1323 104.898 20.682 104.898 21.328ZM99.9506 15.327H98.2166V17.435H99.9506C100.483 17.435 100.874 17.3387 101.124 17.146C101.384 16.9533 101.515 16.6927 101.515 16.364C101.515 16.0467 101.384 15.7973 101.124 15.616C100.874 15.4233 100.483 15.327 99.9506 15.327ZM100.104 19.968H98.2166V22.467H100.104C100.704 22.467 101.146 22.3537 101.43 22.127C101.724 21.9003 101.872 21.5943 101.872 21.209C101.872 20.835 101.724 20.5347 101.43 20.308C101.146 20.0813 100.704 19.968 100.104 19.968ZM111.718 25V24.116C111.401 24.4787 111.032 24.745 110.613 24.915C110.194 25.085 109.689 25.17 109.1 25.17C108.148 25.17 107.377 24.9093 106.788 24.388C106.21 23.8553 105.921 23.1583 105.921 22.297C105.921 21.4017 106.272 20.7217 106.975 20.257C107.678 19.781 108.681 19.543 109.984 19.543C110.233 19.543 110.471 19.5543 110.698 19.577C110.925 19.5883 111.134 19.611 111.327 19.645V19.203C111.327 18.8063 111.214 18.5003 110.987 18.285C110.772 18.0697 110.46 17.962 110.052 17.962C109.655 17.962 109.338 18.0697 109.1 18.285C108.873 18.5003 108.732 18.8063 108.675 19.203H106.057C106.114 18.489 106.318 17.8713 106.669 17.35C107.02 16.8173 107.485 16.4093 108.063 16.126C108.652 15.8313 109.321 15.684 110.069 15.684C111.327 15.684 112.307 16.007 113.01 16.653C113.713 17.299 114.064 18.2 114.064 19.356V25H111.718ZM108.658 22.212C108.658 22.5067 108.754 22.739 108.947 22.909C109.151 23.079 109.429 23.164 109.78 23.164C110.267 23.164 110.647 23.0563 110.919 22.841C111.191 22.6257 111.327 22.331 111.327 21.957V21.379C111.112 21.3337 110.913 21.3053 110.732 21.294C110.551 21.2713 110.364 21.26 110.171 21.26C109.684 21.26 109.31 21.3393 109.049 21.498C108.788 21.6567 108.658 21.8947 108.658 22.212ZM118.885 20.189V25H115.978V15.854H118.647V16.959C119.009 16.5623 119.406 16.2507 119.837 16.024C120.279 15.7973 120.789 15.684 121.367 15.684C122.273 15.684 123.01 15.9787 123.577 16.568C124.155 17.1573 124.444 18.0073 124.444 19.118V25H121.537V20.087C121.537 19.509 121.429 19.067 121.214 18.761C121.01 18.455 120.687 18.302 120.245 18.302C120.007 18.302 119.78 18.3643 119.565 18.489C119.361 18.6137 119.196 18.812 119.072 19.084C118.947 19.356 118.885 19.7243 118.885 20.189ZM129.28 25H126.373V12.794H129.28V19.56L132.119 15.854H135.468L132.085 20.189L135.944 25H132.238L129.28 20.835V25Z" fill="#0F0B2E"/>
</svg>
