<svg width="18" height="19" viewBox="0 0 18 19" fill="none" xmlns="http://www.w3.org/2000/svg">
<path d="M16.9861 7.82709C16.9556 7.73528 16.8788 7.66526 16.7831 7.64221L12.2228 6.53878L9.74226 2.63178C9.69018 2.54975 9.59859 2.5 9.5 2.5C9.40141 2.5 9.30982 2.54975 9.25774 2.63178L6.77722 6.53878L2.21694 7.64221C2.12121 7.66526 2.04445 7.73528 2.01391 7.82709C1.98353 7.9189 2.00364 8.0198 2.06713 8.09358L5.09438 11.6117L4.75653 16.2005C4.7494 16.2968 4.79377 16.3898 4.87338 16.4467C4.95356 16.5035 5.05757 16.5158 5.1486 16.4794L9.5 14.7467L13.8514 16.4794C13.8859 16.4933 13.9225 16.5 13.9588 16.5C14.0182 16.5 14.077 16.4818 14.1266 16.4466C14.2064 16.3898 14.2506 16.2968 14.2435 16.2003L13.9056 11.6115L16.9329 8.09344C16.9964 8.0198 17.0165 7.91904 16.9861 7.82709Z" fill="#FFBC58"/>
</svg>
