<svg width="11" height="10" viewBox="0 0 11 10" fill="none" xmlns="http://www.w3.org/2000/svg">
<path d="M11 1.29845C10.5875 1.48402 10.1521 1.6 9.69375 1.66959C10.1521 1.39124 10.5188 0.950515 10.6792 0.41701C10.2437 0.672164 9.7625 0.857731 9.23542 0.973711C8.82292 0.532989 8.22708 0.254639 7.58542 0.254639C6.34792 0.254639 5.33958 1.27526 5.33958 2.52783C5.33958 2.7134 5.3625 2.87577 5.40833 3.03814C3.55208 2.94536 1.87917 2.04072 0.75625 0.648969C0.572917 0.996907 0.458333 1.36804 0.458333 1.78557C0.458333 2.57423 0.847917 3.2701 1.46667 3.68763C1.1 3.66443 0.75625 3.57165 0.435417 3.40928V3.43247C0.435417 4.54588 1.21458 5.47371 2.24583 5.68247C2.0625 5.72887 1.85625 5.75206 1.65 5.75206C1.5125 5.75206 1.35208 5.72887 1.21458 5.70567C1.5125 6.61031 2.3375 7.28299 3.32292 7.28299C2.54375 7.88608 1.58125 8.25722 0.527083 8.25722C0.34375 8.25722 0.160417 8.25722 0 8.23402C1.00833 8.8835 2.17708 9.25464 3.46042 9.25464C7.60833 9.25464 9.87708 5.77526 9.87708 2.75979C9.87708 2.66701 9.87708 2.55103 9.87708 2.45825C10.3125 2.1567 10.7021 1.76237 11 1.29845Z" fill="white"/>
</svg>
